<?xml version="1.0" encoding="utf-8" standalone="no"?>
<svg width="100" height="50" version="1.1" xmlns="http://www.w3.org/2000/svg" xmlns:xlink="http://www.w3.org/1999/xlink">


<g>
<rect fill="#C5FFF9" stroke="#728180" x="0.3" y="0.1"  width="100" height="50"/>
<path fill="#728180" d="M16.1,11.6h-2V7c0.9-0.2,1.5-1,1.5-1.9c0-1.1-0.9-2-2-2c-0.9,0-1.7,0.6-1.9,1.5H8.6V3.1
	c0-0.3-0.2-0.5-0.5-0.5h-5c-0.3,0-0.5,0.2-0.5,0.5v4c0,0.3,0.2,0.5,0.5,0.5h2v4.6c-0.9,0.2-1.5,1-1.5,1.9c0,1.1,0.9,2,2,2
	c0.9,0,1.7-0.6,1.9-1.5h3.1v1.5c0,0.3,0.2,0.5,0.5,0.5h5c0.3,0,0.5-0.2,0.5-0.5v-4C16.6,11.8,16.4,11.6,16.1,11.6z M3.6,3.6h4v3h-4
	V3.6z M10.6,12.1v1.5h-3c-0.2-0.7-0.7-1.3-1.4-1.5V7.6h2c0.3,0,0.5-0.2,0.5-0.5V5.6h3.1C12,6.3,12.5,6.8,13.2,7v4.6h-2
	C10.8,11.6,10.6,11.8,10.6,12.1z M15.6,15.6h-4v-3h4V15.6z"/>
	<text x="0" y="0" fill="rgb(0,0,0)" stroke="none" font-size="10" font-style="normal"/>
</g>
</svg>
